<svg xmlns="http://www.w3.org/2000/svg" xmlns:xlink="http://www.w3.org/1999/xlink" width="500" zoomAndPan="magnify" viewBox="0 0 375 374.999991" height="500" preserveAspectRatio="xMidYMid meet" version="1.0"><defs><g/><clipPath id="5b37ab088d"><path d="M 20 23 L 354.253906 23 L 354.253906 125.460938 L 20 125.460938 Z M 20 23 " clip-rule="nonzero"/></clipPath><clipPath id="f109cf5688"><path d="M 79.605469 125.460938 C 47.09375 125.460938 20.734375 102.742188 20.734375 74.710938 C 20.734375 46.683594 47.09375 23.960938 79.605469 23.960938 L 295.386719 23.960938 C 327.898438 23.960938 354.253906 46.683594 354.253906 74.710938 C 354.253906 102.742188 327.898438 125.460938 295.386719 125.460938 L 79.605469 125.460938 " clip-rule="nonzero"/></clipPath><clipPath id="849912e979"><path d="M 20 249 L 354.253906 249 L 354.253906 350.996094 L 20 350.996094 Z M 20 249 " clip-rule="nonzero"/></clipPath><clipPath id="d748805cbe"><path d="M 79.605469 350.996094 C 47.09375 350.996094 20.734375 328.273438 20.734375 300.246094 C 20.734375 272.21875 47.09375 249.496094 79.605469 249.496094 L 295.386719 249.496094 C 327.898438 249.496094 354.253906 272.21875 354.253906 300.246094 C 354.253906 328.273438 327.898438 350.996094 295.386719 350.996094 L 79.605469 350.996094 " clip-rule="nonzero"/></clipPath><clipPath id="c4445bedff"><path d="M 20 136 L 354.253906 136 L 354.253906 238.246094 L 20 238.246094 Z M 20 136 " clip-rule="nonzero"/></clipPath><clipPath id="51a948707c"><path d="M 79.605469 238.246094 C 47.09375 238.246094 20.734375 215.523438 20.734375 187.496094 C 20.734375 159.464844 47.09375 136.742188 79.605469 136.742188 L 295.386719 136.742188 C 327.898438 136.742188 354.253906 159.464844 354.253906 187.496094 C 354.253906 215.523438 327.898438 238.246094 295.386719 238.246094 L 79.605469 238.246094 " clip-rule="nonzero"/></clipPath></defs><g clip-path="url(#5b37ab088d)"><g clip-path="url(#f109cf5688)"><path fill="#8bdcff" d="M 354.253906 125.460938 L 19.441406 125.460938 L 19.441406 22.441406 L 354.253906 22.441406 Z M 354.253906 125.460938 " fill-opacity="1" fill-rule="nonzero"/></g></g><g clip-path="url(#849912e979)"><g clip-path="url(#d748805cbe)"><path fill="#ff6c6c" d="M 354.253906 350.996094 L 19.441406 350.996094 L 19.441406 247.976562 L 354.253906 247.976562 Z M 354.253906 350.996094 " fill-opacity="1" fill-rule="nonzero"/></g></g><g clip-path="url(#c4445bedff)"><g clip-path="url(#51a948707c)"><path fill="#ffd18b" d="M 354.253906 238.246094 L 19.441406 238.246094 L 19.441406 135.226562 L 354.253906 135.226562 Z M 354.253906 238.246094 " fill-opacity="1" fill-rule="nonzero"/></g></g><g fill="#ffffff" fill-opacity="1"><g transform="translate(143.106631, 264.263053)"><g><path d="M 42.96875 -110.6875 C 36.632812 -110.6875 31.3125 -112.863281 27 -117.21875 C 22.695312 -121.570312 20.546875 -126.863281 20.546875 -133.09375 C 20.546875 -139.320312 22.695312 -144.613281 27 -148.96875 C 31.3125 -153.332031 36.632812 -155.515625 42.96875 -155.515625 C 49.195312 -155.515625 54.460938 -153.332031 58.765625 -148.96875 C 63.066406 -144.613281 65.21875 -139.320312 65.21875 -133.09375 C 65.21875 -126.863281 63.066406 -121.570312 58.765625 -117.21875 C 54.460938 -112.863281 49.195312 -110.6875 42.96875 -110.6875 Z M 42.96875 1.71875 C 36.632812 1.71875 31.3125 -0.429688 27 -4.734375 C 22.695312 -9.046875 20.546875 -14.367188 20.546875 -20.703125 C 20.546875 -26.929688 22.695312 -32.222656 27 -36.578125 C 31.3125 -40.941406 36.632812 -43.125 42.96875 -43.125 C 49.195312 -43.125 54.460938 -40.941406 58.765625 -36.578125 C 63.066406 -32.222656 65.21875 -26.929688 65.21875 -20.703125 C 65.21875 -14.367188 63.066406 -9.046875 58.765625 -4.734375 C 54.460938 -0.429688 49.195312 1.71875 42.96875 1.71875 Z M 42.96875 1.71875 "/></g></g></g><g fill="#ffffff" fill-opacity="1"><g transform="translate(228.879909, 264.263053)"><g><path d="M 26.15625 51.6875 C 22.519531 51.6875 19.507812 50.671875 17.125 48.640625 C 14.738281 46.617188 13.546875 44.15625 13.546875 41.25 C 13.546875 38.34375 14.6875 34.765625 16.96875 30.515625 C 36.476562 -6.328125 46.234375 -45.972656 46.234375 -88.421875 C 46.234375 -130.660156 36.582031 -170.046875 17.28125 -206.578125 C 15.101562 -210.929688 14.015625 -214.40625 14.015625 -217 C 14.015625 -220.113281 15.234375 -222.679688 17.671875 -224.703125 C 20.109375 -226.734375 23.144531 -227.75 26.78125 -227.75 C 30.613281 -227.75 34.164062 -226.734375 37.4375 -224.703125 C 40.707031 -222.679688 44.210938 -219.234375 47.953125 -214.359375 C 73.367188 -180.941406 86.078125 -138.960938 86.078125 -88.421875 C 86.078125 -62.578125 83.015625 -39.664062 76.890625 -19.6875 C 70.773438 0.289062 61.128906 19.515625 47.953125 37.984375 C 40.890625 47.117188 33.625 51.6875 26.15625 51.6875 Z M 26.15625 51.6875 "/></g></g></g></svg>