<svg xmlns="http://www.w3.org/2000/svg" xmlns:xlink="http://www.w3.org/1999/xlink" width="1080" zoomAndPan="magnify" viewBox="0 0 810 809.999993" height="1080" preserveAspectRatio="xMidYMid meet" version="1.0"><defs><clipPath id="ccaa6c56fd"><path d="M 120.144531 221.769531 L 659.742188 221.769531 L 659.742188 594 L 120.144531 594 Z M 120.144531 221.769531 " clip-rule="nonzero"/></clipPath><clipPath id="4223b44945"><path d="M 56.234375 56.234375 L 753.734375 56.234375 L 753.734375 753.734375 L 56.234375 753.734375 Z M 56.234375 56.234375 " clip-rule="nonzero"/></clipPath><clipPath id="9fcf87bc16"><path d="M 36.832031 33.800781 L 786.082031 33.800781 L 786.082031 783.050781 L 36.832031 783.050781 Z M 36.832031 33.800781 " clip-rule="nonzero"/></clipPath></defs><path fill="#8bdcff" d="M 794.753906 404.171875 C 795.652344 405.527344 796.496094 406.917969 797.28125 408.34375 C 798.0625 409.769531 798.785156 411.226562 799.445312 412.714844 C 800.105469 414.203125 800.703125 415.714844 801.238281 417.253906 C 801.769531 418.792969 802.238281 420.347656 802.640625 421.925781 C 803.042969 423.503906 803.378906 425.09375 803.644531 426.699219 C 803.914062 428.304688 804.113281 429.917969 804.246094 431.542969 C 804.378906 433.164062 804.441406 434.789062 804.4375 436.417969 C 804.429688 438.042969 804.355469 439.667969 804.214844 441.289062 C 804.074219 442.910156 803.863281 444.523438 803.585938 446.128906 C 803.308594 447.730469 802.960938 449.320312 802.550781 450.894531 C 802.140625 452.46875 801.660156 454.023438 801.117188 455.558594 C 800.574219 457.09375 799.96875 458.601562 799.300781 460.085938 C 798.628906 461.570312 797.898438 463.023438 797.105469 464.445312 C 796.3125 465.867188 795.460938 467.25 794.550781 468.601562 C 793.644531 469.953125 792.679688 471.261719 791.660156 472.527344 C 790.640625 473.796875 789.566406 475.019531 788.445312 476.199219 C 786.75 477.980469 785.175781 479.859375 783.71875 481.839844 C 782.265625 483.820312 780.941406 485.886719 779.75 488.035156 C 778.554688 490.1875 777.503906 492.402344 776.59375 494.683594 C 775.683594 496.96875 774.921875 499.300781 774.308594 501.679688 C 773.695312 504.058594 773.234375 506.46875 772.925781 508.910156 C 772.621094 511.347656 772.46875 513.796875 772.472656 516.253906 C 772.476562 518.710938 772.636719 521.160156 772.953125 523.597656 C 773.269531 526.035156 773.742188 528.441406 774.363281 530.820312 C 774.773438 532.394531 775.121094 533.984375 775.398438 535.585938 C 775.675781 537.191406 775.886719 538.804688 776.03125 540.425781 C 776.171875 542.046875 776.246094 543.671875 776.25 545.296875 C 776.257812 546.925781 776.195312 548.550781 776.0625 550.171875 C 775.929688 551.792969 775.730469 553.410156 775.464844 555.015625 C 775.195312 556.621094 774.859375 558.210938 774.460938 559.789062 C 774.058594 561.363281 773.589844 562.921875 773.058594 564.460938 C 772.523438 566 771.929688 567.511719 771.265625 569 C 770.605469 570.484375 769.886719 571.941406 769.101562 573.371094 C 768.320312 574.796875 767.476562 576.1875 766.578125 577.542969 C 765.675781 578.898438 764.71875 580.214844 763.707031 581.488281 C 762.695312 582.765625 761.632812 583.996094 760.519531 585.179688 C 759.402344 586.367188 758.242188 587.503906 757.03125 588.589844 C 755.820312 589.675781 754.566406 590.710938 753.265625 591.695312 C 751.96875 592.675781 750.632812 593.601562 749.253906 594.46875 C 747.878906 595.339844 746.46875 596.148438 745.023438 596.898438 C 742.84375 598.03125 740.742188 599.296875 738.722656 600.699219 C 736.699219 602.097656 734.777344 603.621094 732.949219 605.265625 C 731.125 606.910156 729.40625 608.667969 727.804688 610.53125 C 726.203125 612.394531 724.722656 614.351562 723.371094 616.402344 C 722.015625 618.457031 720.796875 620.585938 719.714844 622.792969 C 718.632812 625 717.695312 627.269531 716.902344 629.59375 C 716.105469 631.921875 715.464844 634.289062 714.972656 636.699219 C 714.480469 639.105469 714.140625 641.539062 713.960938 643.988281 C 713.839844 645.613281 713.648438 647.226562 713.390625 648.832031 C 713.132812 650.441406 712.808594 652.035156 712.417969 653.613281 C 712.023438 655.191406 711.566406 656.753906 711.042969 658.292969 C 710.519531 659.835938 709.933594 661.351562 709.28125 662.84375 C 708.632812 664.335938 707.917969 665.796875 707.144531 667.226562 C 706.371094 668.660156 705.535156 670.054688 704.644531 671.414062 C 703.753906 672.777344 702.804688 674.097656 701.800781 675.378906 C 700.796875 676.660156 699.742188 677.898438 698.632812 679.089844 C 697.527344 680.28125 696.371094 681.425781 695.167969 682.519531 C 693.960938 683.613281 692.714844 684.65625 691.421875 685.644531 C 690.128906 686.636719 688.796875 687.570312 687.429688 688.445312 C 686.058594 689.324219 684.652344 690.140625 683.210938 690.898438 C 681.773438 691.660156 680.304688 692.355469 678.804688 692.992188 C 677.308594 693.625 675.785156 694.195312 674.238281 694.703125 C 672.691406 695.210938 671.128906 695.648438 669.542969 696.023438 C 667.960938 696.398438 666.363281 696.707031 664.753906 696.945312 C 662.324219 697.3125 659.921875 697.828125 657.558594 698.496094 C 655.191406 699.164062 652.878906 699.980469 650.617188 700.945312 C 648.355469 701.910156 646.164062 703.011719 644.042969 704.253906 C 641.921875 705.496094 639.886719 706.867188 637.9375 708.371094 C 635.992188 709.871094 634.148438 711.492188 632.40625 713.226562 C 630.667969 714.964844 629.042969 716.804688 627.539062 718.746094 C 626.03125 720.6875 624.652344 722.71875 623.40625 724.839844 C 622.15625 726.957031 621.046875 729.144531 620.078125 731.40625 C 619.4375 732.898438 618.734375 734.363281 617.96875 735.796875 C 617.207031 737.234375 616.382812 738.632812 615.5 740 C 614.617188 741.363281 613.679688 742.691406 612.6875 743.976562 C 611.691406 745.265625 610.644531 746.507812 609.546875 747.703125 C 608.449219 748.902344 607.300781 750.054688 606.105469 751.15625 C 604.910156 752.257812 603.667969 753.304688 602.386719 754.304688 C 601.101562 755.300781 599.777344 756.242188 598.414062 757.128906 C 597.050781 758.011719 595.652344 758.839844 594.21875 759.609375 C 592.785156 760.375 591.324219 761.082031 589.832031 761.726562 C 588.339844 762.371094 586.820312 762.953125 585.28125 763.46875 C 583.738281 763.984375 582.179688 764.4375 580.597656 764.824219 C 579.019531 765.207031 577.425781 765.527344 575.820312 765.777344 C 574.214844 766.027344 572.601562 766.210938 570.976562 766.328125 C 569.355469 766.441406 567.734375 766.488281 566.105469 766.46875 C 564.480469 766.445312 562.859375 766.355469 561.242188 766.199219 C 559.625 766.039062 558.015625 765.8125 556.414062 765.519531 C 554 765.074219 551.5625 764.785156 549.109375 764.648438 C 546.65625 764.511719 544.203125 764.53125 541.75 764.707031 C 539.300781 764.886719 536.867188 765.21875 534.460938 765.703125 C 532.050781 766.1875 529.679688 766.824219 527.351562 767.613281 C 525.023438 768.402344 522.753906 769.332031 520.546875 770.410156 C 518.335938 771.488281 516.203125 772.699219 514.148438 774.046875 C 512.09375 775.394531 510.132812 776.867188 508.265625 778.464844 C 506.398438 780.066406 504.636719 781.773438 502.988281 783.597656 C 501.894531 784.804688 500.753906 785.960938 499.566406 787.074219 C 498.375 788.183594 497.140625 789.242188 495.863281 790.25 C 494.582031 791.253906 493.265625 792.207031 491.90625 793.101562 C 490.546875 793.996094 489.152344 794.832031 487.722656 795.609375 C 486.292969 796.386719 484.832031 797.105469 483.34375 797.757812 C 481.851562 798.414062 480.335938 799.003906 478.796875 799.53125 C 477.257812 800.058594 475.699219 800.519531 474.117188 800.914062 C 472.539062 801.308594 470.949219 801.636719 469.339844 801.898438 C 467.734375 802.160156 466.121094 802.351562 464.496094 802.476562 C 462.875 802.601562 461.25 802.65625 459.621094 802.644531 C 457.996094 802.632812 456.371094 802.550781 454.75 802.402344 C 453.128906 802.253906 451.519531 802.035156 449.914062 801.75 C 448.3125 801.464844 446.726562 801.113281 445.152344 800.695312 C 443.582031 800.273438 442.027344 799.789062 440.496094 799.242188 C 438.964844 798.691406 437.457031 798.078125 435.980469 797.398438 C 434.5 796.722656 433.050781 795.984375 431.632812 795.183594 C 429.492188 793.976562 427.28125 792.910156 425.003906 791.984375 C 422.726562 791.058594 420.402344 790.28125 418.023438 789.652344 C 415.648438 789.019531 413.242188 788.542969 410.804688 788.222656 C 408.367188 787.898438 405.917969 787.730469 403.460938 787.71875 C 401.003906 787.707031 398.554688 787.851562 396.113281 788.152344 C 393.671875 788.453125 391.261719 788.90625 388.878906 789.515625 C 386.5 790.125 384.164062 790.878906 381.878906 791.785156 C 379.59375 792.691406 377.375 793.738281 375.222656 794.925781 C 373.796875 795.710938 372.339844 796.4375 370.855469 797.101562 C 369.367188 797.761719 367.859375 798.363281 366.320312 798.898438 C 364.785156 799.4375 363.226562 799.90625 361.652344 800.3125 C 360.074219 800.71875 358.484375 801.054688 356.878906 801.324219 C 355.273438 801.597656 353.660156 801.800781 352.039062 801.933594 C 350.417969 802.070312 348.792969 802.136719 347.164062 802.132812 C 345.535156 802.132812 343.910156 802.058594 342.289062 801.921875 C 340.667969 801.78125 339.054688 801.574219 337.449219 801.300781 C 335.847656 801.023438 334.257812 800.683594 332.679688 800.273438 C 331.105469 799.863281 329.550781 799.386719 328.015625 798.847656 C 326.480469 798.308594 324.96875 797.703125 323.484375 797.035156 C 322 796.367188 320.546875 795.640625 319.125 794.847656 C 317.703125 794.058594 316.316406 793.210938 314.964844 792.300781 C 313.613281 791.394531 312.300781 790.433594 311.03125 789.414062 C 309.761719 788.398438 308.535156 787.328125 307.355469 786.207031 C 306.175781 785.085938 305.046875 783.917969 303.964844 782.699219 C 302.332031 780.863281 300.585938 779.136719 298.734375 777.523438 C 296.878906 775.90625 294.933594 774.417969 292.890625 773.050781 C 290.847656 771.683594 288.722656 770.453125 286.523438 769.355469 C 284.324219 768.261719 282.0625 767.308594 279.742188 766.5 C 277.421875 765.691406 275.058594 765.035156 272.652344 764.527344 C 270.25 764.019531 267.820312 763.667969 265.371094 763.46875 C 262.921875 763.269531 260.46875 763.226562 258.011719 763.34375 C 255.558594 763.457031 253.121094 763.726562 250.699219 764.152344 C 249.09375 764.433594 247.480469 764.648438 245.859375 764.796875 C 244.238281 764.945312 242.609375 765.023438 240.980469 765.03125 C 239.351562 765.042969 237.726562 764.984375 236.101562 764.855469 C 234.476562 764.730469 232.863281 764.535156 231.253906 764.269531 C 229.648438 764.007812 228.054688 763.675781 226.472656 763.277344 C 224.894531 762.878906 223.332031 762.414062 221.792969 761.886719 C 220.253906 761.355469 218.738281 760.761719 217.246094 760.105469 C 215.753906 759.445312 214.296875 758.726562 212.867188 757.945312 C 211.4375 757.164062 210.042969 756.324219 208.683594 755.425781 C 207.324219 754.527344 206.003906 753.574219 204.726562 752.5625 C 203.449219 751.554688 202.214844 750.492188 201.027344 749.378906 C 199.835938 748.265625 198.699219 747.101562 197.605469 745.890625 C 196.515625 744.679688 195.480469 743.425781 194.492188 742.128906 C 193.507812 740.832031 192.582031 739.496094 191.707031 738.117188 C 190.835938 736.742188 190.023438 735.332031 189.273438 733.886719 C 188.519531 732.441406 187.828125 730.96875 187.199219 729.464844 C 186.25 727.199219 185.164062 725 183.933594 722.871094 C 182.707031 720.742188 181.347656 718.699219 179.859375 716.742188 C 178.371094 714.785156 176.765625 712.933594 175.039062 711.179688 C 173.316406 709.429688 171.488281 707.792969 169.554688 706.277344 C 167.621094 704.757812 165.601562 703.367188 163.492188 702.105469 C 161.382812 700.84375 159.199219 699.722656 156.949219 698.738281 C 154.695312 697.753906 152.390625 696.917969 150.03125 696.230469 C 147.671875 695.539062 145.277344 695 142.851562 694.617188 C 141.242188 694.363281 139.648438 694.039062 138.070312 693.652344 C 136.488281 693.261719 134.925781 692.808594 133.386719 692.289062 C 131.84375 691.769531 130.328125 691.183594 128.832031 690.535156 C 127.339844 689.886719 125.878906 689.179688 124.445312 688.40625 C 123.011719 687.636719 121.613281 686.804688 120.253906 685.914062 C 118.890625 685.027344 117.566406 684.082031 116.285156 683.078125 C 115 682.078125 113.761719 681.023438 112.566406 679.917969 C 111.375 678.8125 110.230469 677.660156 109.132812 676.457031 C 108.035156 675.253906 106.992188 674.007812 106 672.71875 C 105.007812 671.429688 104.070312 670.097656 103.191406 668.730469 C 102.3125 667.359375 101.492188 665.957031 100.730469 664.519531 C 99.96875 663.078125 99.269531 661.613281 98.632812 660.113281 C 97.996094 658.617188 97.421875 657.09375 96.914062 655.550781 C 96.40625 654.003906 95.960938 652.441406 95.585938 650.855469 C 95.207031 649.273438 94.898438 647.675781 94.65625 646.066406 C 94.414062 644.457031 94.238281 642.84375 94.132812 641.21875 C 93.972656 638.765625 93.65625 636.332031 93.1875 633.917969 C 92.714844 631.507812 92.09375 629.132812 91.320312 626.796875 C 90.546875 624.464844 89.628906 622.191406 88.566406 619.972656 C 87.503906 617.753906 86.304688 615.613281 84.96875 613.550781 C 83.632812 611.488281 82.171875 609.515625 80.585938 607.636719 C 79 605.757812 77.300781 603.988281 75.488281 602.328125 C 73.679688 600.664062 71.769531 599.125 69.761719 597.707031 C 67.753906 596.289062 65.664062 595.003906 63.492188 593.851562 C 62.054688 593.089844 60.648438 592.265625 59.28125 591.386719 C 57.914062 590.503906 56.585938 589.566406 55.292969 588.574219 C 54.003906 587.582031 52.757812 586.535156 51.558594 585.4375 C 50.355469 584.339844 49.203125 583.191406 48.097656 581.996094 C 46.992188 580.800781 45.941406 579.5625 44.941406 578.277344 C 43.941406 576.992188 42.996094 575.671875 42.109375 574.304688 C 41.21875 572.941406 40.390625 571.542969 39.617188 570.109375 C 38.847656 568.675781 38.140625 567.214844 37.492188 565.71875 C 36.84375 564.226562 36.261719 562.707031 35.742188 561.164062 C 35.222656 559.621094 34.769531 558.0625 34.382812 556.480469 C 33.996094 554.898438 33.675781 553.304688 33.421875 551.695312 C 33.167969 550.089844 32.984375 548.472656 32.867188 546.847656 C 32.75 545.226562 32.699219 543.601562 32.71875 541.972656 C 32.742188 540.34375 32.828125 538.722656 32.988281 537.101562 C 33.144531 535.480469 33.367188 533.871094 33.660156 532.269531 C 33.953125 530.667969 34.3125 529.082031 34.742188 527.511719 C 35.386719 525.136719 35.878906 522.734375 36.21875 520.296875 C 36.554688 517.863281 36.738281 515.414062 36.765625 512.957031 C 36.792969 510.496094 36.664062 508.046875 36.378906 505.605469 C 36.097656 503.160156 35.65625 500.746094 35.066406 498.359375 C 34.472656 495.972656 33.730469 493.632812 32.839844 491.339844 C 31.949219 489.050781 30.917969 486.824219 29.746094 484.660156 C 28.570312 482.5 27.265625 480.421875 25.824219 478.429688 C 24.386719 476.433594 22.828125 474.539062 21.148438 472.742188 C 20.035156 471.554688 18.976562 470.324219 17.96875 469.042969 C 16.960938 467.765625 16.007812 466.449219 15.113281 465.089844 C 14.214844 463.730469 13.378906 462.339844 12.597656 460.910156 C 11.820312 459.480469 11.101562 458.023438 10.445312 456.53125 C 9.789062 455.042969 9.195312 453.53125 8.667969 451.992188 C 8.136719 450.453125 7.675781 448.894531 7.277344 447.316406 C 6.878906 445.738281 6.550781 444.144531 6.285156 442.539062 C 6.023438 440.933594 5.828125 439.316406 5.699219 437.695312 C 5.574219 436.074219 5.515625 434.449219 5.523438 432.820312 C 5.535156 431.195312 5.609375 429.570312 5.757812 427.949219 C 5.902344 426.328125 6.117188 424.714844 6.402344 423.113281 C 6.683594 421.511719 7.03125 419.921875 7.449219 418.347656 C 7.863281 416.777344 8.34375 415.222656 8.890625 413.691406 C 9.4375 412.15625 10.050781 410.648438 10.722656 409.167969 C 11.398438 407.6875 12.132812 406.238281 12.929688 404.816406 C 13.722656 403.398438 14.578125 402.015625 15.492188 400.667969 C 16.871094 398.632812 18.117188 396.519531 19.226562 394.324219 C 20.335938 392.132812 21.300781 389.878906 22.125 387.5625 C 22.945312 385.246094 23.621094 382.886719 24.140625 380.484375 C 24.664062 378.082031 25.03125 375.660156 25.246094 373.210938 C 25.457031 370.761719 25.515625 368.308594 25.414062 365.851562 C 25.316406 363.398438 25.0625 360.957031 24.652344 358.535156 C 24.242188 356.109375 23.679688 353.722656 22.964844 351.371094 C 22.25 349.019531 21.386719 346.722656 20.382812 344.480469 C 19.714844 342.996094 19.113281 341.484375 18.574219 339.949219 C 18.035156 338.414062 17.5625 336.859375 17.15625 335.28125 C 16.75 333.707031 16.410156 332.117188 16.136719 330.511719 C 15.863281 328.90625 15.65625 327.292969 15.519531 325.671875 C 15.382812 324.050781 15.3125 322.425781 15.3125 320.800781 C 15.3125 319.171875 15.378906 317.546875 15.515625 315.925781 C 15.652344 314.304688 15.859375 312.691406 16.132812 311.085938 C 16.402344 309.480469 16.742188 307.890625 17.148438 306.316406 C 17.554688 304.738281 18.027344 303.183594 18.566406 301.644531 C 19.101562 300.109375 19.703125 298.597656 20.371094 297.113281 C 21.035156 295.628906 21.761719 294.171875 22.546875 292.75 C 23.335938 291.324219 24.183594 289.9375 25.085938 288.582031 C 25.992188 287.230469 26.953125 285.917969 27.96875 284.644531 C 28.980469 283.375 30.050781 282.148438 31.167969 280.964844 C 32.285156 279.78125 33.453125 278.648438 34.667969 277.566406 C 35.882812 276.484375 37.140625 275.453125 38.441406 274.472656 C 40.402344 272.996094 42.261719 271.398438 44.023438 269.683594 C 45.78125 267.96875 47.425781 266.148438 48.953125 264.226562 C 50.480469 262.300781 51.878906 260.289062 53.148438 258.183594 C 54.421875 256.082031 55.554688 253.90625 56.546875 251.660156 C 57.542969 249.414062 58.390625 247.113281 59.09375 244.757812 C 59.792969 242.40625 60.34375 240.015625 60.742188 237.589844 C 61.136719 235.167969 61.378906 232.726562 61.464844 230.269531 C 61.554688 227.816406 61.484375 225.363281 61.257812 222.917969 C 61.113281 221.296875 61.035156 219.675781 61.027344 218.046875 C 61.015625 216.421875 61.078125 214.796875 61.203125 213.175781 C 61.332031 211.554688 61.527344 209.941406 61.789062 208.335938 C 62.054688 206.730469 62.382812 205.140625 62.78125 203.5625 C 63.179688 201.984375 63.644531 200.425781 64.171875 198.886719 C 64.699219 197.351562 65.292969 195.835938 65.949219 194.347656 C 66.605469 192.859375 67.324219 191.402344 68.101562 189.972656 C 68.878906 188.546875 69.71875 187.152344 70.613281 185.796875 C 71.511719 184.4375 72.460938 183.121094 73.46875 181.84375 C 74.476562 180.566406 75.535156 179.332031 76.648438 178.144531 C 77.757812 176.957031 78.917969 175.816406 80.125 174.726562 C 81.332031 173.636719 82.582031 172.597656 83.875 171.613281 C 85.167969 170.628906 86.503906 169.699219 87.875 168.828125 C 89.25 167.953125 90.65625 167.140625 92.097656 166.386719 C 93.539062 165.632812 95.007812 164.9375 96.507812 164.308594 C 98.007812 163.675781 99.53125 163.109375 101.078125 162.609375 C 103.421875 161.855469 105.707031 160.953125 107.9375 159.90625 C 110.167969 158.859375 112.320312 157.675781 114.398438 156.355469 C 116.476562 155.035156 118.460938 153.585938 120.355469 152.011719 C 122.25 150.433594 124.035156 148.746094 125.710938 146.941406 C 127.386719 145.140625 128.945312 143.238281 130.378906 141.234375 C 131.8125 139.234375 133.113281 137.148438 134.28125 134.980469 C 135.449219 132.8125 136.476562 130.578125 137.359375 128.277344 C 138.242188 125.980469 138.976562 123.632812 139.558594 121.242188 C 139.945312 119.660156 140.398438 118.097656 140.917969 116.554688 C 141.433594 115.011719 142.019531 113.492188 142.664062 112 C 143.3125 110.507812 144.019531 109.042969 144.789062 107.609375 C 145.558594 106.175781 146.386719 104.773438 147.277344 103.410156 C 148.164062 102.046875 149.109375 100.722656 150.109375 99.4375 C 151.105469 98.152344 152.160156 96.914062 153.261719 95.714844 C 154.367188 94.519531 155.519531 93.375 156.71875 92.273438 C 157.921875 91.175781 159.164062 90.128906 160.453125 89.136719 C 161.742188 88.140625 163.070312 87.203125 164.441406 86.320312 C 165.808594 85.4375 167.210938 84.617188 168.648438 83.851562 C 170.085938 83.089844 171.550781 82.386719 173.046875 81.746094 C 174.542969 81.105469 176.066406 80.53125 177.609375 80.019531 C 179.15625 79.503906 180.71875 79.058594 182.300781 78.679688 C 183.882812 78.300781 185.480469 77.984375 187.089844 77.742188 C 188.699219 77.496094 190.316406 77.316406 191.9375 77.207031 C 193.5625 77.097656 195.1875 77.058594 196.816406 77.085938 C 199.273438 77.125 201.722656 77.011719 204.167969 76.742188 C 206.609375 76.472656 209.023438 76.046875 211.414062 75.472656 C 213.804688 74.894531 216.144531 74.167969 218.441406 73.289062 C 220.738281 72.414062 222.96875 71.398438 225.136719 70.238281 C 227.304688 69.078125 229.390625 67.785156 231.390625 66.359375 C 233.394531 64.933594 235.296875 63.386719 237.105469 61.71875 C 238.910156 60.050781 240.601562 58.277344 242.179688 56.394531 C 243.761719 54.511719 245.214844 52.535156 246.542969 50.46875 C 247.421875 49.097656 248.355469 47.769531 249.347656 46.476562 C 250.339844 45.1875 251.382812 43.941406 252.476562 42.738281 C 253.574219 41.535156 254.71875 40.382812 255.910156 39.277344 C 257.105469 38.171875 258.34375 37.117188 259.625 36.113281 C 260.90625 35.113281 262.226562 34.167969 263.589844 33.277344 C 264.949219 32.386719 266.347656 31.554688 267.777344 30.78125 C 269.210938 30.007812 270.671875 29.296875 272.164062 28.648438 C 273.65625 28 275.171875 27.414062 276.710938 26.890625 C 278.253906 26.371094 279.8125 25.914062 281.394531 25.523438 C 282.972656 25.132812 284.566406 24.808594 286.171875 24.554688 C 287.777344 24.296875 289.394531 24.109375 291.015625 23.992188 C 292.636719 23.871094 294.261719 23.820312 295.890625 23.835938 C 297.515625 23.851562 299.140625 23.9375 300.757812 24.089844 C 302.378906 24.246094 303.988281 24.464844 305.589844 24.753906 C 307.191406 25.042969 308.777344 25.402344 310.347656 25.824219 C 311.917969 26.246094 313.46875 26.734375 314.996094 27.289062 C 317.308594 28.128906 319.664062 28.816406 322.0625 29.355469 C 324.460938 29.894531 326.886719 30.28125 329.332031 30.507812 C 331.78125 30.738281 334.234375 30.8125 336.691406 30.730469 C 339.148438 30.648438 341.589844 30.410156 344.019531 30.019531 C 346.445312 29.625 348.839844 29.078125 351.195312 28.378906 C 353.554688 27.679688 355.855469 26.835938 358.105469 25.84375 C 360.355469 24.851562 362.535156 23.722656 364.640625 22.453125 C 366.746094 21.183594 368.761719 19.785156 370.691406 18.257812 C 371.96875 17.25 373.285156 16.292969 374.640625 15.394531 C 375.996094 14.496094 377.386719 13.65625 378.816406 12.875 C 380.242188 12.09375 381.699219 11.371094 383.1875 10.714844 C 384.675781 10.054688 386.1875 9.460938 387.726562 8.929688 C 389.265625 8.398438 390.824219 7.933594 392.402344 7.53125 C 393.976562 7.132812 395.570312 6.800781 397.175781 6.535156 C 398.78125 6.269531 400.394531 6.070312 402.015625 5.941406 C 403.640625 5.8125 405.261719 5.75 406.890625 5.757812 C 408.519531 5.765625 410.140625 5.839844 411.761719 5.984375 C 413.382812 6.128906 414.996094 6.339844 416.597656 6.621094 C 418.203125 6.902344 419.789062 7.25 421.363281 7.664062 C 422.9375 8.078125 424.492188 8.554688 426.023438 9.101562 C 427.558594 9.648438 429.066406 10.253906 430.546875 10.925781 C 432.03125 11.597656 433.480469 12.332031 434.902344 13.128906 C 436.320312 13.921875 437.707031 14.773438 439.054688 15.6875 C 440.402344 16.597656 441.710938 17.5625 442.976562 18.585938 C 444.890625 20.128906 446.894531 21.542969 448.988281 22.828125 C 451.082031 24.117188 453.25 25.265625 455.488281 26.277344 C 457.730469 27.289062 460.023438 28.15625 462.375 28.875 C 464.726562 29.59375 467.113281 30.160156 469.535156 30.578125 C 471.957031 30.992188 474.398438 31.253906 476.851562 31.359375 C 479.308594 31.460938 481.761719 31.410156 484.210938 31.203125 C 486.660156 30.996094 489.085938 30.636719 491.488281 30.121094 C 493.890625 29.601562 496.253906 28.9375 498.570312 28.121094 C 500.105469 27.578125 501.660156 27.101562 503.238281 26.691406 C 504.8125 26.28125 506.402344 25.941406 508.003906 25.664062 C 509.609375 25.386719 511.222656 25.179688 512.84375 25.039062 C 514.464844 24.898438 516.089844 24.828125 517.71875 24.824219 C 519.34375 24.820312 520.96875 24.886719 522.59375 25.019531 C 524.214844 25.152344 525.828125 25.355469 527.433594 25.625 C 529.039062 25.894531 530.628906 26.234375 532.207031 26.636719 C 533.78125 27.042969 535.339844 27.511719 536.875 28.046875 C 538.414062 28.582031 539.925781 29.179688 541.410156 29.84375 C 542.898438 30.507812 544.355469 31.230469 545.78125 32.015625 C 547.203125 32.800781 548.59375 33.644531 549.949219 34.550781 C 551.304688 35.453125 552.617188 36.410156 553.890625 37.421875 C 555.164062 38.4375 556.394531 39.503906 557.578125 40.621094 C 558.761719 41.738281 559.894531 42.902344 560.980469 44.117188 C 562.066406 45.328125 563.097656 46.585938 564.078125 47.882812 C 565.058594 49.183594 565.980469 50.523438 566.847656 51.902344 C 568.15625 53.980469 569.589844 55.972656 571.152344 57.871094 C 572.714844 59.769531 574.390625 61.558594 576.179688 63.242188 C 577.972656 64.929688 579.859375 66.492188 581.851562 67.9375 C 583.839844 69.378906 585.914062 70.691406 588.070312 71.871094 C 590.226562 73.050781 592.449219 74.089844 594.734375 74.988281 C 597.023438 75.882812 599.359375 76.632812 601.746094 77.230469 C 604.128906 77.832031 606.542969 78.277344 608.980469 78.566406 C 611.421875 78.859375 613.871094 78.996094 616.332031 78.976562 C 617.957031 78.960938 619.582031 79.015625 621.207031 79.140625 C 622.828125 79.265625 624.441406 79.457031 626.050781 79.714844 C 627.65625 79.976562 629.25 80.300781 630.828125 80.695312 C 632.40625 81.089844 633.96875 81.550781 635.507812 82.074219 C 637.046875 82.601562 638.5625 83.191406 640.054688 83.84375 C 641.542969 84.496094 643.003906 85.210938 644.433594 85.988281 C 645.863281 86.765625 647.261719 87.601562 648.621094 88.496094 C 649.980469 89.390625 651.300781 90.339844 652.578125 91.34375 C 653.859375 92.351562 655.09375 93.40625 656.285156 94.515625 C 657.476562 95.625 658.617188 96.785156 659.710938 97.988281 C 660.804688 99.195312 661.84375 100.445312 662.832031 101.738281 C 663.820312 103.03125 664.75 104.367188 665.625 105.738281 C 666.503906 107.109375 667.316406 108.515625 668.074219 109.957031 C 668.832031 111.398438 669.527344 112.867188 670.160156 114.367188 C 670.792969 115.867188 671.359375 117.390625 671.863281 118.9375 C 672.371094 120.484375 672.808594 122.050781 673.179688 123.636719 C 673.742188 126.03125 674.457031 128.378906 675.320312 130.683594 C 676.183594 132.988281 677.1875 135.226562 678.335938 137.402344 C 679.484375 139.578125 680.769531 141.671875 682.183594 143.6875 C 683.597656 145.699219 685.136719 147.613281 686.796875 149.429688 C 688.453125 151.246094 690.222656 152.949219 692.097656 154.539062 C 693.976562 156.132812 695.945312 157.597656 698.007812 158.9375 C 700.070312 160.277344 702.210938 161.480469 704.429688 162.546875 C 706.644531 163.617188 708.921875 164.539062 711.253906 165.316406 C 712.796875 165.832031 714.316406 166.410156 715.8125 167.054688 C 717.304688 167.699219 718.769531 168.40625 720.203125 169.171875 C 721.640625 169.941406 723.039062 170.769531 724.40625 171.652344 C 725.769531 172.539062 727.09375 173.480469 728.382812 174.476562 C 729.667969 175.476562 730.910156 176.523438 732.105469 177.628906 C 733.304688 178.730469 734.453125 179.878906 735.550781 181.078125 C 736.652344 182.277344 737.703125 183.519531 738.695312 184.808594 C 739.691406 186.09375 740.632812 187.421875 741.515625 188.789062 C 742.398438 190.15625 743.226562 191.554688 743.992188 192.992188 C 744.757812 194.425781 745.460938 195.894531 746.101562 197.386719 C 746.746094 198.882812 747.324219 200.402344 747.835938 201.949219 C 748.351562 203.492188 748.800781 205.054688 749.183594 206.636719 C 749.566406 208.21875 749.878906 209.8125 750.128906 211.421875 C 750.375 213.03125 750.554688 214.644531 750.667969 216.269531 C 750.78125 217.894531 750.824219 219.519531 750.796875 221.144531 C 750.773438 222.773438 750.679688 224.394531 750.519531 226.015625 C 750.273438 228.460938 750.183594 230.914062 750.25 233.371094 C 750.320312 235.828125 750.542969 238.273438 750.921875 240.703125 C 751.296875 243.128906 751.828125 245.527344 752.511719 247.886719 C 753.195312 250.25 754.027344 252.558594 755.003906 254.8125 C 755.980469 257.070312 757.097656 259.253906 758.351562 261.367188 C 759.609375 263.480469 760.992188 265.507812 762.507812 267.445312 C 764.019531 269.382812 765.648438 271.214844 767.398438 272.945312 C 769.144531 274.675781 770.992188 276.289062 772.945312 277.78125 C 774.234375 278.773438 775.480469 279.8125 776.683594 280.90625 C 777.886719 282 779.042969 283.140625 780.148438 284.332031 C 781.253906 285.523438 782.308594 286.757812 783.3125 288.039062 C 784.316406 289.316406 785.261719 290.636719 786.152344 291.996094 C 787.046875 293.355469 787.878906 294.75 788.652344 296.179688 C 789.425781 297.609375 790.136719 299.070312 790.789062 300.558594 C 791.441406 302.050781 792.027344 303.5625 792.550781 305.101562 C 793.074219 306.640625 793.53125 308.199219 793.925781 309.777344 C 794.316406 311.355469 794.640625 312.945312 794.898438 314.550781 C 795.15625 316.15625 795.347656 317.769531 795.46875 319.390625 C 795.59375 321.011719 795.648438 322.636719 795.632812 324.261719 C 795.617188 325.886719 795.535156 327.507812 795.382812 329.125 C 795.234375 330.746094 795.015625 332.355469 794.726562 333.953125 C 794.441406 335.554688 794.085938 337.140625 793.667969 338.710938 C 793.246094 340.28125 792.761719 341.832031 792.210938 343.359375 C 791.660156 344.890625 791.046875 346.394531 790.367188 347.871094 C 789.339844 350.105469 788.453125 352.398438 787.714844 354.746094 C 786.976562 357.09375 786.390625 359.480469 785.957031 361.902344 C 785.523438 364.324219 785.246094 366.765625 785.125 369.222656 C 785 371.683594 785.035156 374.140625 785.226562 376.59375 C 785.417969 379.046875 785.765625 381.476562 786.265625 383.886719 C 786.765625 386.296875 787.417969 388.664062 788.222656 390.992188 C 789.027344 393.320312 789.976562 395.585938 791.066406 397.789062 C 792.160156 399.996094 793.390625 402.121094 794.753906 404.171875 Z M 794.753906 404.171875 " fill-opacity="1" fill-rule="nonzero"/><path fill="#fffef4" d="M 365.378906 411.898438 L 265.480469 312.011719 L 183.484375 394 L 283.378906 493.902344 L 365.378906 575.90625 L 447.375 493.902344 L 627.121094 314.148438 L 545.121094 232.144531 Z M 365.378906 411.898438 " fill-opacity="1" fill-rule="nonzero"/><g clip-path="url(#ccaa6c56fd)"><path fill="#8bdcff" d="M 120.144531 221.769531 L 659.300781 221.769531 L 659.300781 593.863281 L 120.144531 593.863281 Z M 120.144531 221.769531 " fill-opacity="1" fill-rule="nonzero"/></g><g clip-path="url(#4223b44945)"><path fill="#ffffff" d="M 404.984375 56.234375 C 596.796875 56.234375 753.734375 213.167969 753.734375 404.984375 C 753.734375 596.796875 596.796875 753.734375 404.984375 753.734375 C 213.167969 753.734375 56.234375 596.796875 56.234375 404.984375 C 56.234375 213.167969 213.167969 56.234375 404.984375 56.234375 Z M 404.984375 94.863281 C 234.414062 94.863281 94.863281 234.414062 94.863281 404.984375 C 94.863281 575.550781 234.414062 715.105469 404.984375 715.105469 C 575.550781 715.105469 715.105469 575.550781 715.105469 404.984375 C 715.105469 234.414062 575.550781 94.863281 404.984375 94.863281 " fill-opacity="1" fill-rule="evenodd"/></g><path fill="#ffffff" d="M 334.519531 458.453125 L 535.410156 257.5625 C 552.703125 240.265625 580.75 240.265625 598.046875 257.5625 C 615.335938 274.851562 615.335938 302.902344 598.046875 320.191406 L 366.066406 552.171875 C 365.988281 552.25 365.914062 552.332031 365.835938 552.40625 C 348.542969 569.699219 320.488281 569.699219 303.199219 552.40625 L 294.847656 544.050781 L 294.851562 544.050781 L 211.921875 461.125 C 194.628906 443.832031 194.628906 415.78125 211.921875 398.492188 C 229.214844 381.199219 257.265625 381.199219 274.554688 398.492188 L 334.519531 458.453125 " fill-opacity="1" fill-rule="evenodd"/><g clip-path="url(#9fcf87bc16)"><path fill="#8bdcff" d="M 411.457031 33.800781 C 204.476562 33.800781 36.832031 201.445312 36.832031 408.425781 C 36.832031 615.40625 204.476562 783.050781 411.457031 783.050781 C 618.433594 783.050781 786.082031 615.40625 786.082031 408.425781 C 786.082031 201.445312 618.433594 33.800781 411.457031 33.800781 Z M 411.457031 708.125 C 245.871094 708.125 111.753906 574.007812 111.753906 408.425781 C 111.753906 242.839844 245.871094 108.726562 411.457031 108.726562 C 577.039062 108.726562 711.15625 242.839844 711.15625 408.425781 C 711.15625 574.007812 577.039062 708.125 411.457031 708.125 Z M 411.457031 708.125 " fill-opacity="1" fill-rule="nonzero"/></g></svg>